<svg xmlns="http://www.w3.org/2000/svg" xmlns:xlink="http://www.w3.org/1999/xlink" width="50" zoomAndPan="magnify" viewBox="0 0 37.5 37.499999" height="50" preserveAspectRatio="xMidYMid meet" version="1.0"><defs><clipPath id="f2b4b33b05"><path d="M 6.882812 0.894531 L 29.824219 0.894531 L 29.824219 36.421875 L 6.882812 36.421875 Z M 6.882812 0.894531 " clip-rule="nonzero"/></clipPath></defs><g clip-path="url(#f2b4b33b05)"><path fill="#000000" d="M 16.046875 27.375 L 16.421875 27.375 L 16.421875 23.664062 L 12.414062 23.664062 C 11.191406 23.664062 10.402344 22.363281 10.992188 21.292969 L 12.421875 18.695312 C 12.285156 18.605469 12.160156 18.492188 12.054688 18.363281 L 9.257812 19.902344 C 8.183594 20.496094 6.886719 19.695312 6.886719 18.445312 L 6.886719 6.476562 C 6.886719 5.226562 8.183594 4.425781 9.257812 5.019531 L 11.859375 6.453125 C 11.992188 6.195312 12.1875 5.980469 12.421875 5.820312 L 10.996094 3.246094 C 10.402344 2.171875 11.203125 0.890625 12.417969 0.890625 L 24.132812 0.890625 C 25.347656 0.890625 26.148438 2.171875 25.554688 3.246094 L 24.125 5.820312 C 24.363281 5.980469 24.5625 6.199219 24.695312 6.460938 L 27.390625 5.019531 C 28.484375 4.433594 29.808594 5.226562 29.808594 6.476562 L 29.808594 18.445312 C 29.808594 19.699219 28.484375 20.488281 27.390625 19.90625 L 24.5 18.355469 C 24.390625 18.488281 24.265625 18.605469 24.125 18.699219 L 25.554688 21.296875 C 26.144531 22.363281 25.359375 23.664062 24.132812 23.664062 L 20.125 23.664062 L 20.125 27.378906 C 20.574219 27.378906 20.925781 27.339844 21.289062 27.710938 C 21.496094 27.921875 21.621094 28.207031 21.621094 28.519531 L 21.621094 30.578125 L 24.492188 33.511719 C 24.90625 33.9375 24.90625 34.625 24.492188 35.050781 C 24.15625 35.394531 23.921875 35.714844 23.402344 35.714844 C 23.128906 35.714844 22.855469 35.609375 22.648438 35.398438 L 20.105469 32.800781 L 19.578125 32.800781 L 19.578125 35.472656 C 19.578125 35.992188 19.164062 36.414062 18.660156 36.414062 L 17.890625 36.414062 C 17.386719 36.414062 16.96875 35.988281 16.96875 35.472656 L 16.96875 32.800781 L 16.417969 32.800781 L 13.855469 35.417969 C 13.464844 35.816406 12.816406 35.8125 12.449219 35.417969 L 12.445312 35.417969 L 12.007812 34.972656 C 11.621094 34.574219 11.621094 33.929688 12.007812 33.535156 L 14.929688 30.550781 L 14.929688 28.519531 C 14.929688 27.886719 15.433594 27.375 16.046875 27.375 Z M 21.558594 32.03125 C 21.5 32.203125 21.402344 32.355469 21.273438 32.480469 L 23.402344 34.644531 L 23.753906 34.28125 Z M 18.53125 32.800781 L 18.019531 32.800781 L 18.019531 35.34375 L 18.53125 35.34375 Z M 15.261719 32.464844 C 15.136719 32.34375 15.039062 32.183594 14.984375 32.011719 L 12.789062 34.253906 L 13.148438 34.621094 Z M 20.5 28.445312 L 16.046875 28.445312 C 16.011719 28.445312 15.976562 28.480469 15.976562 28.519531 L 15.976562 31.65625 C 15.976562 31.691406 16.011719 31.726562 16.046875 31.726562 L 20.5 31.726562 C 20.539062 31.726562 20.570312 31.695312 20.570312 31.65625 L 20.570312 28.519531 C 20.570312 28.480469 20.539062 28.445312 20.5 28.445312 Z M 17.46875 23.664062 L 17.46875 27.375 L 19.078125 27.375 L 19.078125 23.664062 Z M 23.078125 5.542969 L 24.640625 2.71875 C 24.835938 2.371094 24.566406 1.960938 24.132812 1.960938 L 12.414062 1.960938 C 11.980469 1.960938 11.710938 2.371094 11.90625 2.71875 L 13.46875 5.542969 Z M 11.667969 17.359375 L 11.667969 7.5625 L 8.761719 5.960938 C 8.382812 5.75 7.933594 6.035156 7.933594 6.476562 L 7.933594 18.445312 C 7.933594 18.886719 8.378906 19.171875 8.761719 18.960938 Z M 24.878906 17.277344 L 24.878906 17.359375 L 27.875 18.960938 C 28.273438 19.171875 28.757812 18.898438 28.757812 18.445312 L 28.757812 6.476562 C 28.757812 6.023438 28.273438 5.75 27.875 5.964844 L 24.878906 7.566406 Z M 13.472656 18.976562 L 11.90625 21.816406 C 11.707031 22.183594 11.988281 22.589844 12.414062 22.589844 L 24.132812 22.589844 C 24.554688 22.589844 24.839844 22.183594 24.640625 21.816406 L 23.074219 18.976562 Z M 18.273438 7.078125 C 21.074219 7.078125 23.34375 9.398438 23.34375 12.257812 C 23.34375 15.121094 21.074219 17.4375 18.273438 17.4375 C 15.472656 17.4375 13.203125 15.121094 13.203125 12.257812 C 13.203125 9.398438 15.472656 7.078125 18.273438 7.078125 Z M 21.117188 9.355469 C 19.546875 7.75 17 7.75 15.429688 9.355469 C 13.859375 10.957031 13.859375 13.558594 15.429688 15.164062 C 17 16.765625 19.546875 16.765625 21.117188 15.164062 C 22.6875 13.558594 22.6875 10.957031 21.117188 9.355469 Z M 23.214844 6.613281 L 13.332031 6.613281 C 12.992188 6.613281 12.71875 6.898438 12.71875 7.242188 L 12.71875 17.277344 C 12.71875 17.617188 12.992188 17.902344 13.332031 17.902344 L 23.214844 17.902344 C 23.550781 17.902344 23.832031 17.617188 23.832031 17.277344 L 23.832031 7.242188 C 23.832031 6.898438 23.550781 6.613281 23.214844 6.613281 Z M 23.214844 6.613281 " fill-opacity="1" fill-rule="nonzero"/></g></svg>