<svg xmlns="http://www.w3.org/2000/svg" xmlns:xlink="http://www.w3.org/1999/xlink" width="50" zoomAndPan="magnify" viewBox="0 0 37.5 37.499999" height="50" preserveAspectRatio="xMidYMid meet" version="1.0"><defs><clipPath id="ecd250a2e4"><path d="M 1.046875 9 L 32 9 L 32 35.117188 L 1.046875 35.117188 Z M 1.046875 9 " clip-rule="nonzero"/></clipPath><clipPath id="001d4c4ed0"><path d="M 25 6 L 35.832031 6 L 35.832031 17 L 25 17 Z M 25 6 " clip-rule="nonzero"/></clipPath><clipPath id="34a141276c"><path d="M 16 1.808594 L 27 1.808594 L 27 11 L 16 11 Z M 16 1.808594 " clip-rule="nonzero"/></clipPath></defs><g clip-path="url(#ecd250a2e4)"><path fill="#000000" d="M 30.640625 18.496094 C 30.21875 18.496094 29.878906 18.835938 29.878906 19.257812 L 29.878906 20.574219 L 27 17.695312 C 26.285156 16.980469 25.332031 16.585938 24.320312 16.585938 C 23.304688 16.585938 22.355469 16.980469 21.636719 17.695312 L 14.058594 25.273438 C 13.628906 25.703125 13.058594 25.941406 12.449219 25.941406 C 11.839844 25.941406 11.269531 25.703125 10.839844 25.273438 L 10.21875 24.652344 C 9.503906 23.9375 8.550781 23.542969 7.539062 23.542969 C 6.523438 23.542969 5.574219 23.9375 4.855469 24.652344 L 2.574219 26.9375 L 2.574219 13.1875 C 2.574219 11.933594 3.59375 10.914062 4.847656 10.914062 L 18.503906 10.914062 C 18.921875 10.914062 19.261719 10.574219 19.261719 10.152344 C 19.261719 9.734375 18.921875 9.394531 18.503906 9.394531 L 4.847656 9.394531 C 3.835938 9.394531 2.882812 9.789062 2.167969 10.507812 C 1.449219 11.222656 1.058594 12.175781 1.058594 13.1875 L 1.058594 31.390625 C 1.058594 32.40625 1.449219 33.359375 2.167969 34.074219 C 2.882812 34.789062 3.835938 35.183594 4.847656 35.183594 L 27.605469 35.183594 C 28.617188 35.183594 29.570312 34.789062 30.285156 34.074219 C 31.003906 33.359375 31.398438 32.40625 31.398438 31.390625 L 31.398438 19.257812 C 31.398438 18.835938 31.058594 18.496094 30.640625 18.496094 Z M 27.605469 33.667969 L 4.847656 33.667969 C 3.59375 33.667969 2.574219 32.648438 2.574219 31.390625 L 2.574219 29.082031 L 5.929688 25.726562 C 6.359375 25.296875 6.929688 25.058594 7.539062 25.058594 C 8.144531 25.058594 8.71875 25.296875 9.148438 25.726562 L 9.769531 26.347656 C 10.484375 27.0625 11.4375 27.457031 12.449219 27.457031 C 13.460938 27.457031 14.414062 27.0625 15.132812 26.347656 L 22.710938 18.769531 C 23.597656 17.882812 25.042969 17.882812 25.929688 18.769531 L 29.878906 22.71875 L 29.878906 31.390625 C 29.878906 32.648438 28.859375 33.667969 27.605469 33.667969 Z M 27.605469 33.667969 " fill-opacity="1" fill-rule="nonzero"/></g><path fill="#000000" d="M 9.753906 15.058594 C 9.035156 15.773438 8.640625 16.726562 8.640625 17.738281 C 8.640625 18.753906 9.035156 19.703125 9.753906 20.421875 C 10.46875 21.136719 11.421875 21.53125 12.433594 21.53125 C 13.449219 21.53125 14.398438 21.136719 15.117188 20.421875 C 15.832031 19.703125 16.226562 18.753906 16.226562 17.738281 C 16.226562 16.726562 15.832031 15.773438 15.117188 15.058594 C 14.398438 14.339844 13.449219 13.945312 12.433594 13.945312 C 11.421875 13.945312 10.46875 14.339844 9.753906 15.058594 Z M 14.710938 17.738281 C 14.710938 18.992188 13.6875 20.015625 12.433594 20.015625 C 11.179688 20.015625 10.160156 18.992188 10.160156 17.738281 C 10.160156 16.484375 11.179688 15.464844 12.433594 15.464844 C 13.6875 15.464844 14.710938 16.484375 14.710938 17.738281 Z M 14.710938 17.738281 " fill-opacity="1" fill-rule="nonzero"/><g clip-path="url(#001d4c4ed0)"><path fill="#000000" d="M 35.472656 10.96875 C 33.210938 10.054688 31.871094 8.730469 31.371094 6.917969 C 31.28125 6.589844 30.980469 6.359375 30.640625 6.359375 C 30.296875 6.359375 30 6.589844 29.90625 6.917969 C 29.410156 8.730469 28.066406 10.054688 25.804688 10.96875 C 25.519531 11.082031 25.328125 11.359375 25.328125 11.671875 C 25.328125 11.980469 25.519531 12.257812 25.804688 12.375 C 28.066406 13.285156 29.410156 14.609375 29.90625 16.421875 C 30 16.753906 30.296875 16.980469 30.640625 16.980469 C 30.980469 16.980469 31.28125 16.753906 31.371094 16.421875 C 31.871094 14.609375 33.210938 13.285156 35.472656 12.375 C 35.761719 12.257812 35.949219 11.980469 35.949219 11.671875 C 35.949219 11.359375 35.761719 11.082031 35.472656 10.96875 Z M 31.753906 12.921875 C 31.316406 13.34375 30.945312 13.808594 30.640625 14.3125 C 30.335938 13.808594 29.960938 13.34375 29.523438 12.921875 C 29.046875 12.460938 28.480469 12.042969 27.832031 11.671875 C 28.480469 11.300781 29.046875 10.882812 29.523438 10.421875 C 29.960938 10 30.335938 9.535156 30.640625 9.03125 C 30.945312 9.535156 31.316406 10 31.753906 10.421875 C 32.230469 10.882812 32.796875 11.300781 33.445312 11.671875 C 32.796875 12.042969 32.230469 12.460938 31.753906 12.921875 Z M 31.753906 12.921875 " fill-opacity="1" fill-rule="nonzero"/></g><g clip-path="url(#34a141276c)"><path fill="#000000" d="M 17.460938 7.066406 C 19.308594 7.808594 20.402344 8.886719 20.804688 10.355469 C 20.894531 10.683594 21.195312 10.914062 21.535156 10.914062 C 21.878906 10.914062 22.175781 10.683594 22.269531 10.355469 C 22.671875 8.886719 23.765625 7.808594 25.613281 7.066406 C 25.898438 6.949219 26.089844 6.671875 26.089844 6.359375 C 26.089844 6.050781 25.898438 5.773438 25.613281 5.65625 C 23.765625 4.914062 22.671875 3.835938 22.269531 2.367188 C 22.175781 2.039062 21.878906 1.808594 21.535156 1.808594 C 21.195312 1.808594 20.894531 2.039062 20.804688 2.367188 C 20.402344 3.835938 19.308594 4.914062 17.460938 5.65625 C 17.171875 5.773438 16.984375 6.050781 16.984375 6.359375 C 16.984375 6.671875 17.171875 6.949219 17.460938 7.066406 Z M 20.695312 5.410156 C 21.019531 5.097656 21.300781 4.761719 21.535156 4.398438 C 21.773438 4.761719 22.054688 5.097656 22.378906 5.410156 C 22.738281 5.757812 23.15625 6.074219 23.628906 6.359375 C 23.15625 6.648438 22.738281 6.964844 22.378906 7.3125 C 22.054688 7.621094 21.773438 7.960938 21.535156 8.324219 C 21.300781 7.960938 21.019531 7.621094 20.695312 7.3125 C 20.335938 6.964844 19.917969 6.648438 19.445312 6.359375 C 19.917969 6.074219 20.335938 5.757812 20.695312 5.410156 Z M 20.695312 5.410156 " fill-opacity="1" fill-rule="nonzero"/></g></svg>