<svg xmlns="http://www.w3.org/2000/svg" xmlns:xlink="http://www.w3.org/1999/xlink" width="50" zoomAndPan="magnify" viewBox="0 0 37.5 37.499999" height="50" preserveAspectRatio="xMidYMid meet" version="1.0"><defs><clipPath id="18d6824346"><path d="M 3.214844 5 L 33.558594 5 L 33.558594 31 L 3.214844 31 Z M 3.214844 5 " clip-rule="nonzero"/></clipPath><clipPath id="2c0d47b6f7"><path d="M 17 0.570312 L 19 0.570312 L 19 4 L 17 4 Z M 17 0.570312 " clip-rule="nonzero"/></clipPath><clipPath id="664cecec22"><path d="M 17 32 L 19 32 L 19 36.097656 L 17 36.097656 Z M 17 32 " clip-rule="nonzero"/></clipPath></defs><path fill="#000000" d="M 29.550781 14.921875 L 26.863281 14.921875 C 26.207031 14.921875 25.671875 14.386719 25.671875 13.730469 L 25.671875 12.855469 C 25.671875 12.199219 26.207031 11.664062 26.863281 11.664062 L 29.550781 11.664062 C 30.210938 11.664062 30.746094 12.199219 30.746094 12.855469 L 30.746094 13.730469 C 30.746094 14.386719 30.210938 14.921875 29.550781 14.921875 Z M 26.984375 13.613281 L 29.4375 13.613281 L 29.4375 12.972656 L 26.984375 12.972656 Z M 26.984375 13.613281 " fill-opacity="1" fill-rule="nonzero"/><g clip-path="url(#18d6824346)"><path fill="#000000" d="M 30.679688 9.769531 L 24.339844 9.769531 L 23.527344 7.015625 C 23.316406 6.304688 22.589844 5.804688 21.761719 5.804688 L 15.007812 5.804688 C 14.179688 5.804688 13.453125 6.300781 13.242188 7.015625 L 12.425781 9.765625 L 10.742188 9.765625 L 10.742188 8.75 C 10.742188 8.148438 10.253906 7.664062 9.652344 7.664062 L 7.007812 7.664062 C 6.40625 7.664062 5.921875 8.152344 5.921875 8.75 L 5.921875 9.78125 C 4.453125 9.875 3.285156 11.082031 3.285156 12.566406 L 3.285156 28.054688 C 3.285156 29.597656 4.542969 30.855469 6.089844 30.855469 L 30.679688 30.855469 C 32.226562 30.855469 33.484375 29.597656 33.484375 28.054688 L 33.484375 12.566406 C 33.484375 11.023438 32.226562 9.769531 30.679688 9.769531 Z M 14.5 7.386719 C 14.539062 7.25 14.738281 7.113281 15.007812 7.113281 L 21.761719 7.113281 C 22.03125 7.113281 22.230469 7.25 22.269531 7.386719 L 22.972656 9.765625 L 13.796875 9.765625 Z M 7.226562 8.972656 L 9.433594 8.972656 L 9.433594 9.769531 L 7.226562 9.769531 Z M 6.089844 11.074219 L 30.679688 11.074219 C 31.503906 11.074219 32.175781 11.746094 32.175781 12.566406 L 32.175781 15.484375 L 24.667969 15.484375 C 23.226562 13.511719 20.902344 12.222656 18.277344 12.222656 C 15.652344 12.222656 13.328125 13.511719 11.886719 15.484375 L 4.59375 15.484375 L 4.59375 12.566406 C 4.59375 11.746094 5.265625 11.074219 6.089844 11.074219 Z M 18.277344 13.53125 C 21.917969 13.53125 24.878906 16.488281 24.878906 20.121094 C 24.878906 23.753906 21.917969 26.707031 18.277344 26.707031 C 14.640625 26.707031 11.679688 23.753906 11.679688 20.121094 C 11.679688 16.488281 14.640625 13.53125 18.277344 13.53125 Z M 30.679688 29.546875 L 6.089844 29.546875 C 5.265625 29.546875 4.59375 28.875 4.59375 28.054688 L 4.59375 16.792969 L 11.117188 16.792969 C 10.640625 17.804688 10.367188 18.929688 10.367188 20.121094 C 10.367188 24.472656 13.917969 28.015625 18.277344 28.015625 C 22.640625 28.015625 26.1875 24.472656 26.1875 20.121094 C 26.1875 18.929688 25.917969 17.804688 25.441406 16.792969 L 32.175781 16.792969 L 32.175781 28.054688 C 32.175781 28.875 31.503906 29.546875 30.679688 29.546875 Z M 30.679688 29.546875 " fill-opacity="1" fill-rule="nonzero"/></g><path fill="#000000" d="M 20.207031 7.691406 L 16.5625 7.691406 C 16.199219 7.691406 15.90625 7.984375 15.90625 8.34375 C 15.90625 8.707031 16.199219 9 16.5625 9 L 20.207031 9 C 20.570312 9 20.863281 8.707031 20.863281 8.34375 C 20.863281 7.984375 20.566406 7.691406 20.207031 7.691406 Z M 20.207031 7.691406 " fill-opacity="1" fill-rule="nonzero"/><path fill="#000000" d="M 18.277344 26.136719 C 14.953125 26.136719 12.25 23.4375 12.25 20.121094 C 12.25 16.800781 14.957031 14.101562 18.277344 14.101562 C 21.605469 14.101562 24.308594 16.800781 24.308594 20.121094 C 24.308594 23.4375 21.601562 26.136719 18.277344 26.136719 Z M 18.277344 15.410156 C 15.675781 15.410156 13.558594 17.523438 13.558594 20.121094 C 13.558594 22.71875 15.675781 24.832031 18.277344 24.832031 C 20.882812 24.832031 22.996094 22.71875 22.996094 20.121094 C 22.996094 17.523438 20.882812 15.410156 18.277344 15.410156 Z M 18.277344 15.410156 " fill-opacity="1" fill-rule="nonzero"/><path fill="#000000" d="M 14.515625 20.773438 C 14.15625 20.773438 13.859375 20.480469 13.859375 20.117188 C 13.859375 17.6875 15.839844 15.710938 18.277344 15.710938 C 18.640625 15.710938 18.933594 16.003906 18.933594 16.363281 C 18.933594 16.726562 18.640625 17.019531 18.277344 17.019531 C 16.566406 17.019531 15.171875 18.410156 15.171875 20.121094 C 15.171875 20.480469 14.878906 20.773438 14.515625 20.773438 Z M 14.515625 20.773438 " fill-opacity="1" fill-rule="nonzero"/><path fill="#000000" d="M 7.160156 28.582031 C 6.152344 28.582031 5.332031 27.761719 5.332031 26.757812 C 5.332031 25.75 6.152344 24.933594 7.160156 24.933594 C 8.167969 24.933594 8.984375 25.75 8.984375 26.757812 C 8.984375 27.761719 8.167969 28.582031 7.160156 28.582031 Z M 7.160156 26.242188 C 6.875 26.242188 6.644531 26.472656 6.644531 26.757812 C 6.644531 27.039062 6.875 27.273438 7.160156 27.273438 C 7.445312 27.273438 7.675781 27.039062 7.675781 26.757812 C 7.675781 26.472656 7.445312 26.242188 7.160156 26.242188 Z M 7.160156 26.242188 " fill-opacity="1" fill-rule="nonzero"/><g clip-path="url(#2c0d47b6f7)"><path fill="#000000" d="M 18.3125 3.695312 C 17.949219 3.695312 17.65625 3.402344 17.65625 3.039062 L 17.65625 1.222656 C 17.65625 0.863281 17.949219 0.570312 18.3125 0.570312 C 18.675781 0.570312 18.96875 0.863281 18.96875 1.222656 L 18.96875 3.042969 C 18.964844 3.402344 18.671875 3.695312 18.3125 3.695312 Z M 18.3125 3.695312 " fill-opacity="1" fill-rule="nonzero"/></g><path fill="#000000" d="M 15.097656 4.691406 C 14.929688 4.691406 14.761719 4.628906 14.632812 4.5 L 13.347656 3.214844 C 13.089844 2.960938 13.089844 2.546875 13.347656 2.292969 C 13.601562 2.035156 14.015625 2.035156 14.273438 2.292969 L 15.558594 3.574219 C 15.8125 3.832031 15.8125 4.246094 15.558594 4.5 C 15.433594 4.628906 15.261719 4.691406 15.097656 4.691406 Z M 15.097656 4.691406 " fill-opacity="1" fill-rule="nonzero"/><path fill="#000000" d="M 21.671875 4.691406 C 21.503906 4.691406 21.335938 4.628906 21.207031 4.5 C 20.953125 4.246094 20.953125 3.832031 21.207031 3.574219 L 22.492188 2.292969 C 22.75 2.035156 23.164062 2.035156 23.421875 2.292969 C 23.675781 2.546875 23.675781 2.960938 23.421875 3.214844 L 22.132812 4.5 C 22.007812 4.628906 21.839844 4.691406 21.671875 4.691406 Z M 21.671875 4.691406 " fill-opacity="1" fill-rule="nonzero"/><g clip-path="url(#664cecec22)"><path fill="#000000" d="M 18.3125 36.089844 C 17.949219 36.089844 17.65625 35.796875 17.65625 35.433594 L 17.65625 33.617188 C 17.65625 33.257812 17.949219 32.964844 18.3125 32.964844 C 18.675781 32.964844 18.96875 33.257812 18.96875 33.617188 L 18.96875 35.4375 C 18.964844 35.796875 18.671875 36.089844 18.3125 36.089844 Z M 18.3125 36.089844 " fill-opacity="1" fill-rule="nonzero"/></g><path fill="#000000" d="M 13.808594 34.558594 C 13.640625 34.558594 13.472656 34.496094 13.34375 34.367188 C 13.089844 34.113281 13.089844 33.699219 13.34375 33.445312 L 14.632812 32.160156 C 14.886719 31.90625 15.300781 31.90625 15.558594 32.160156 C 15.8125 32.414062 15.8125 32.828125 15.558594 33.085938 L 14.269531 34.367188 C 14.144531 34.496094 13.976562 34.558594 13.808594 34.558594 Z M 13.808594 34.558594 " fill-opacity="1" fill-rule="nonzero"/><path fill="#000000" d="M 22.960938 34.558594 C 22.792969 34.558594 22.625 34.496094 22.496094 34.367188 L 21.210938 33.085938 C 20.953125 32.828125 20.953125 32.414062 21.210938 32.160156 C 21.464844 31.90625 21.878906 31.90625 22.136719 32.160156 L 23.421875 33.445312 C 23.675781 33.699219 23.675781 34.113281 23.421875 34.367188 C 23.292969 34.496094 23.125 34.558594 22.960938 34.558594 Z M 22.960938 34.558594 " fill-opacity="1" fill-rule="nonzero"/></svg>