<svg xmlns="http://www.w3.org/2000/svg" xmlns:xlink="http://www.w3.org/1999/xlink" width="50" zoomAndPan="magnify" viewBox="0 0 37.5 37.499999" height="50" preserveAspectRatio="xMidYMid meet" version="1.0"><defs><clipPath id="0799eeac50"><path d="M 1.679688 0.410156 L 34.984375 0.410156 L 34.984375 36.679688 L 1.679688 36.679688 Z M 1.679688 0.410156 " clip-rule="nonzero"/></clipPath></defs><g clip-path="url(#0799eeac50)"><path fill="#000000" d="M 34.152344 13.0625 L 27.832031 13.0625 C 27.878906 12.933594 27.90625 12.789062 27.90625 12.644531 L 27.90625 8.898438 C 27.90625 7.9375 27.535156 7.035156 26.867188 6.355469 L 26.597656 6.085938 C 26.367188 5.851562 26.242188 5.539062 26.242188 5.210938 L 26.242188 1.679688 C 26.242188 0.984375 25.679688 0.417969 24.992188 0.417969 L 24.160156 0.417969 C 23.472656 0.417969 22.910156 0.984375 22.910156 1.679688 L 22.910156 5.210938 C 22.910156 5.542969 22.78125 5.855469 22.550781 6.085938 L 22.285156 6.355469 C 21.617188 7.035156 21.246094 7.9375 21.246094 8.898438 L 21.246094 12.644531 C 21.246094 12.789062 21.273438 12.933594 21.320312 13.0625 L 19.996094 13.0625 C 19.996094 12.367188 19.433594 11.800781 18.746094 11.800781 L 15.300781 11.800781 L 14.75 10.132812 C 14.578125 9.617188 14.105469 9.269531 13.5625 9.269531 L 8.101562 9.269531 C 7.566406 9.269531 7.085938 9.617188 6.914062 10.132812 L 6.367188 11.800781 L 2.917969 11.800781 C 2.230469 11.800781 1.667969 12.367188 1.667969 13.0625 L 1.667969 16.648438 C 1.667969 16.878906 1.855469 17.070312 2.085938 17.070312 C 2.316406 17.070312 2.503906 16.878906 2.503906 16.648438 L 2.503906 13.0625 C 2.503906 12.832031 2.691406 12.644531 2.917969 12.644531 L 18.738281 12.644531 C 18.96875 12.644531 19.15625 12.832031 19.15625 13.0625 L 19.15625 23.183594 C 19.15625 23.414062 18.96875 23.605469 18.738281 23.605469 L 2.925781 23.605469 C 2.699219 23.605469 2.511719 23.414062 2.511719 23.183594 L 2.511719 20.441406 C 2.511719 20.210938 2.324219 20.019531 2.09375 20.019531 C 1.867188 20.019531 1.679688 20.210938 1.679688 20.441406 L 1.679688 23.183594 C 1.679688 23.878906 2.238281 24.445312 2.925781 24.445312 L 7.921875 24.445312 L 7.921875 26.132812 C 7.921875 26.367188 8.109375 26.554688 8.339844 26.554688 L 9.171875 26.554688 L 9.171875 36.25 C 9.171875 36.484375 9.359375 36.671875 9.589844 36.671875 C 9.816406 36.671875 10.003906 36.484375 10.003906 36.25 L 10.003906 26.554688 L 11.671875 26.554688 L 11.671875 36.25 C 11.671875 36.484375 11.855469 36.671875 12.085938 36.671875 C 12.316406 36.671875 12.503906 36.484375 12.503906 36.25 L 12.503906 26.554688 L 13.335938 26.554688 C 13.5625 26.554688 13.75 26.367188 13.75 26.132812 L 13.75 24.445312 L 18.746094 24.445312 C 19.433594 24.445312 19.996094 23.878906 19.996094 23.183594 L 19.996094 16.4375 L 22.910156 16.4375 L 22.910156 31.613281 L 20.300781 31.613281 C 19.683594 31.613281 19.152344 32.082031 19.0625 32.703125 L 18.816406 34.449219 C 18.785156 34.691406 18.855469 34.9375 19.015625 35.117188 C 19.171875 35.304688 19.402344 35.410156 19.640625 35.410156 L 29.503906 35.410156 C 29.746094 35.410156 29.976562 35.304688 30.132812 35.117188 C 30.292969 34.933594 30.363281 34.6875 30.328125 34.449219 L 30.082031 32.703125 C 29.996094 32.082031 29.464844 31.613281 28.847656 31.613281 L 26.238281 31.613281 L 26.238281 16.4375 L 34.148438 16.4375 C 34.605469 16.4375 34.980469 16.058594 34.980469 15.59375 L 34.980469 13.90625 C 34.980469 13.445312 34.605469 13.0625 34.148438 13.0625 Z M 7.253906 11.800781 L 7.714844 10.398438 C 7.773438 10.226562 7.929688 10.113281 8.109375 10.113281 L 13.574219 10.113281 C 13.75 10.113281 13.910156 10.226562 13.96875 10.398438 L 14.429688 11.800781 Z M 12.917969 25.710938 L 8.753906 25.710938 L 8.753906 24.445312 L 12.917969 24.445312 Z M 24.160156 1.257812 L 24.992188 1.257812 C 25.222656 1.257812 25.410156 1.449219 25.410156 1.679688 L 25.410156 2.523438 L 23.742188 2.523438 L 23.742188 1.679688 C 23.742188 1.449219 23.929688 1.257812 24.160156 1.257812 Z M 22.078125 12.644531 L 22.078125 8.898438 C 22.078125 8.164062 22.359375 7.472656 22.875 6.957031 L 23.140625 6.6875 C 23.527344 6.292969 23.742188 5.765625 23.742188 5.210938 L 23.742188 3.367188 L 25.410156 3.367188 L 25.410156 5.210938 C 25.410156 5.765625 25.621094 6.289062 26.011719 6.6875 L 26.277344 6.957031 C 26.789062 7.472656 27.074219 8.164062 27.074219 8.898438 L 27.074219 12.644531 C 27.074219 12.875 26.886719 13.0625 26.65625 13.0625 L 22.496094 13.0625 C 22.265625 13.0625 22.078125 12.875 22.078125 12.644531 Z M 29.265625 32.820312 L 29.507812 34.566406 L 19.640625 34.566406 L 19.886719 32.820312 C 19.917969 32.613281 20.097656 32.457031 20.300781 32.457031 L 28.847656 32.457031 C 29.050781 32.457031 29.230469 32.613281 29.257812 32.820312 Z M 25.410156 31.613281 L 23.742188 31.613281 L 23.742188 16.4375 L 25.410156 16.4375 Z M 34.152344 15.59375 L 19.996094 15.59375 L 19.996094 13.90625 L 34.152344 13.90625 Z M 1.679688 18.925781 L 1.679688 18.164062 C 1.679688 17.933594 1.867188 17.742188 2.09375 17.742188 C 2.324219 17.742188 2.511719 17.933594 2.511719 18.164062 L 2.511719 18.925781 C 2.511719 19.15625 2.324219 19.347656 2.09375 19.347656 C 1.867188 19.347656 1.679688 19.15625 1.679688 18.925781 Z M 12.503906 22.339844 C 12.730469 22.339844 12.917969 22.148438 12.917969 21.917969 L 12.917969 14.328125 C 12.917969 14.097656 12.730469 13.90625 12.503906 13.90625 L 4.175781 13.90625 C 3.945312 13.90625 3.761719 14.097656 3.761719 14.328125 L 3.761719 21.917969 C 3.761719 22.148438 3.945312 22.339844 4.175781 22.339844 Z M 7.089844 21.496094 L 7.089844 20.328125 C 7.089844 20.105469 7.179688 19.898438 7.332031 19.738281 L 7.515625 19.550781 C 7.78125 19.285156 7.925781 18.929688 7.925781 18.550781 L 7.925781 17.949219 L 8.761719 17.949219 L 8.761719 18.550781 C 8.761719 18.929688 8.90625 19.28125 9.167969 19.550781 L 9.351562 19.738281 C 9.503906 19.894531 9.59375 20.105469 9.59375 20.324219 L 9.59375 21.492188 L 7.09375 21.492188 Z M 8.753906 17.113281 L 7.921875 17.113281 L 7.921875 16.4375 L 8.753906 16.4375 Z M 4.59375 14.75 L 12.085938 14.75 L 12.085938 21.496094 L 10.421875 21.496094 L 10.421875 20.328125 C 10.421875 19.882812 10.25 19.460938 9.9375 19.144531 L 9.753906 18.957031 C 9.648438 18.847656 9.589844 18.707031 9.589844 18.554688 L 9.589844 16.4375 C 9.589844 15.972656 9.214844 15.59375 8.753906 15.59375 L 7.921875 15.59375 C 7.464844 15.59375 7.089844 15.972656 7.089844 16.4375 L 7.089844 18.554688 C 7.089844 18.707031 7.03125 18.851562 6.925781 18.960938 L 6.742188 19.148438 C 6.429688 19.464844 6.257812 19.886719 6.257812 20.332031 L 6.257812 21.5 L 4.59375 21.5 Z M 14.167969 14.328125 C 14.167969 14.097656 14.355469 13.90625 14.585938 13.90625 L 17.5 13.90625 C 17.726562 13.90625 17.914062 14.097656 17.914062 14.328125 C 17.914062 14.5625 17.726562 14.75 17.5 14.75 L 14.585938 14.75 C 14.355469 14.75 14.167969 14.5625 14.167969 14.328125 Z M 14.167969 16.859375 C 14.167969 16.625 14.355469 16.4375 14.585938 16.4375 L 17.5 16.4375 C 17.726562 16.4375 17.914062 16.625 17.914062 16.859375 C 17.914062 17.089844 17.726562 17.28125 17.5 17.28125 L 14.585938 17.28125 C 14.355469 17.28125 14.167969 17.089844 14.167969 16.859375 Z M 14.167969 19.386719 C 14.167969 19.15625 14.355469 18.964844 14.585938 18.964844 L 17.5 18.964844 C 17.726562 18.964844 17.914062 19.15625 17.914062 19.386719 C 17.914062 19.621094 17.726562 19.808594 17.5 19.808594 L 14.585938 19.808594 C 14.355469 19.808594 14.167969 19.621094 14.167969 19.386719 Z M 14.167969 21.917969 C 14.167969 21.6875 14.355469 21.496094 14.585938 21.496094 L 17.5 21.496094 C 17.726562 21.496094 17.914062 21.6875 17.914062 21.917969 C 17.914062 22.148438 17.726562 22.339844 17.5 22.339844 L 14.585938 22.339844 C 14.355469 22.339844 14.167969 22.148438 14.167969 21.917969 Z M 24.574219 8.425781 C 23.65625 8.425781 22.910156 9.179688 22.910156 10.113281 C 22.910156 11.042969 23.65625 11.800781 24.574219 11.800781 C 25.496094 11.800781 26.242188 11.042969 26.242188 10.113281 C 26.242188 9.179688 25.496094 8.425781 24.574219 8.425781 Z M 24.574219 10.957031 C 24.117188 10.957031 23.742188 10.578125 23.742188 10.113281 C 23.742188 9.648438 24.117188 9.269531 24.574219 9.269531 C 25.035156 9.269531 25.410156 9.648438 25.410156 10.113281 C 25.410156 10.578125 25.035156 10.957031 24.574219 10.957031 Z M 24.574219 10.957031 " fill-opacity="1" fill-rule="nonzero"/></g></svg>