<svg xmlns="http://www.w3.org/2000/svg" xmlns:xlink="http://www.w3.org/1999/xlink" width="50" zoomAndPan="magnify" viewBox="0 0 37.5 37.499999" height="50" preserveAspectRatio="xMidYMid meet" version="1.0"><defs><clipPath id="5a0b6d34d4"><path d="M 5 1.839844 L 7 1.839844 L 7 4 L 5 4 Z M 5 1.839844 " clip-rule="nonzero"/></clipPath><clipPath id="6325d09a3c"><path d="M 7 1.839844 L 10 1.839844 L 10 4 L 7 4 Z M 7 1.839844 " clip-rule="nonzero"/></clipPath><clipPath id="6658bae499"><path d="M 10 1.839844 L 12 1.839844 L 12 4 L 10 4 Z M 10 1.839844 " clip-rule="nonzero"/></clipPath><clipPath id="69fc65e314"><path d="M 12 1.839844 L 15 1.839844 L 15 4 L 12 4 Z M 12 1.839844 " clip-rule="nonzero"/></clipPath><clipPath id="9e7c1f52d9"><path d="M 15 1.839844 L 17 1.839844 L 17 4 L 15 4 Z M 15 1.839844 " clip-rule="nonzero"/></clipPath><clipPath id="fc9b2acabf"><path d="M 17 1.839844 L 19 1.839844 L 19 4 L 17 4 Z M 17 1.839844 " clip-rule="nonzero"/></clipPath><clipPath id="5f43fa18ed"><path d="M 20 1.839844 L 22 1.839844 L 22 4 L 20 4 Z M 20 1.839844 " clip-rule="nonzero"/></clipPath><clipPath id="bcb1aa5953"><path d="M 22 1.839844 L 24 1.839844 L 24 4 L 22 4 Z M 22 1.839844 " clip-rule="nonzero"/></clipPath><clipPath id="d0153de892"><path d="M 25 1.839844 L 27 1.839844 L 27 4 L 25 4 Z M 25 1.839844 " clip-rule="nonzero"/></clipPath><clipPath id="e025dab703"><path d="M 4 22 L 24 22 L 24 35.144531 L 4 35.144531 Z M 4 22 " clip-rule="nonzero"/></clipPath><clipPath id="40aa4e87fc"><path d="M 0.914062 4 L 31 4 L 31 28 L 0.914062 28 Z M 0.914062 4 " clip-rule="nonzero"/></clipPath><clipPath id="4732660299"><path d="M 20 9 L 36.441406 9 L 36.441406 25 L 20 25 Z M 20 9 " clip-rule="nonzero"/></clipPath></defs><path fill="#000000" d="M 4.519531 30.640625 L 5.058594 29.527344 L 13.605469 33.574219 L 13.070312 34.6875 Z M 4.519531 30.640625 " fill-opacity="1" fill-rule="nonzero"/><path fill="#000000" d="M 33.949219 18.488281 L 32.703125 18.488281 L 32.703125 19.722656 L 33.949219 19.722656 Z M 33.949219 18.488281 " fill-opacity="1" fill-rule="nonzero"/><path fill="#000000" d="M 33.949219 20.957031 L 32.703125 20.957031 L 32.703125 22.1875 L 33.949219 22.1875 Z M 33.949219 20.957031 " fill-opacity="1" fill-rule="nonzero"/><path fill="#000000" d="M 33.949219 23.421875 L 32.703125 23.421875 L 32.703125 24.65625 L 33.949219 24.65625 Z M 33.949219 23.421875 " fill-opacity="1" fill-rule="nonzero"/><g clip-path="url(#5a0b6d34d4)"><path fill="#000000" d="M 6.527344 1.84375 L 5.28125 1.84375 L 5.28125 3.078125 L 6.527344 3.078125 Z M 6.527344 1.84375 " fill-opacity="1" fill-rule="nonzero"/></g><g clip-path="url(#6325d09a3c)"><path fill="#000000" d="M 9.019531 1.84375 L 7.773438 1.84375 L 7.773438 3.078125 L 9.019531 3.078125 Z M 9.019531 1.84375 " fill-opacity="1" fill-rule="nonzero"/></g><g clip-path="url(#6658bae499)"><path fill="#000000" d="M 11.511719 1.84375 L 10.265625 1.84375 L 10.265625 3.078125 L 11.511719 3.078125 Z M 11.511719 1.84375 " fill-opacity="1" fill-rule="nonzero"/></g><g clip-path="url(#69fc65e314)"><path fill="#000000" d="M 14.007812 1.84375 L 12.757812 1.84375 L 12.757812 3.078125 L 14.007812 3.078125 Z M 14.007812 1.84375 " fill-opacity="1" fill-rule="nonzero"/></g><g clip-path="url(#9e7c1f52d9)"><path fill="#000000" d="M 16.5 1.84375 L 15.253906 1.84375 L 15.253906 3.078125 L 16.5 3.078125 Z M 16.5 1.84375 " fill-opacity="1" fill-rule="nonzero"/></g><g clip-path="url(#fc9b2acabf)"><path fill="#000000" d="M 18.992188 1.84375 L 17.746094 1.84375 L 17.746094 3.078125 L 18.992188 3.078125 Z M 18.992188 1.84375 " fill-opacity="1" fill-rule="nonzero"/></g><g clip-path="url(#5f43fa18ed)"><path fill="#000000" d="M 21.484375 1.84375 L 20.238281 1.84375 L 20.238281 3.078125 L 21.484375 3.078125 Z M 21.484375 1.84375 " fill-opacity="1" fill-rule="nonzero"/></g><g clip-path="url(#bcb1aa5953)"><path fill="#000000" d="M 23.976562 1.84375 L 22.730469 1.84375 L 22.730469 3.078125 L 23.976562 3.078125 Z M 23.976562 1.84375 " fill-opacity="1" fill-rule="nonzero"/></g><g clip-path="url(#d0153de892)"><path fill="#000000" d="M 26.472656 1.84375 L 25.226562 1.84375 L 25.226562 3.078125 L 26.472656 3.078125 Z M 26.472656 1.84375 " fill-opacity="1" fill-rule="nonzero"/></g><g clip-path="url(#e025dab703)"><path fill="#000000" d="M 20.863281 35.136719 C 20.699219 35.136719 20.511719 35.085938 20.417969 35.054688 L 4.78125 28.25 C 4.328125 28.054688 4.035156 27.609375 4.035156 27.121094 C 4.035156 26.964844 4.0625 26.808594 4.121094 26.664062 L 5.375 23.570312 C 5.644531 22.9375 6.414062 22.640625 7.027344 22.90625 C 7.027344 22.90625 22.609375 29.691406 22.609375 29.691406 C 23.0625 29.886719 23.355469 30.332031 23.355469 30.820312 C 23.355469 30.976562 23.324219 31.132812 23.265625 31.277344 L 22.019531 34.359375 C 21.828125 34.832031 21.375 35.136719 20.859375 35.136719 Z M 20.832031 33.890625 C 20.847656 33.894531 20.875 33.902344 20.894531 33.902344 L 22.109375 30.820312 L 6.527344 24.039062 L 5.28125 27.121094 Z M 20.832031 33.890625 " fill-opacity="1" fill-rule="nonzero"/></g><path fill="#000000" d="M 27.71875 27.738281 L 15.15625 27.738281 L 15.15625 26.503906 L 27.71875 26.503906 C 28.75 26.503906 29.585938 25.675781 29.585938 24.65625 L 29.585938 18.308594 L 30.835938 18.308594 L 30.835938 24.65625 C 30.835938 26.355469 29.4375 27.738281 27.71875 27.738281 Z M 27.71875 27.738281 " fill-opacity="1" fill-rule="nonzero"/><path fill="#000000" d="M 12.136719 22.1875 C 11.105469 22.1875 10.265625 21.359375 10.265625 20.339844 L 10.265625 10.476562 C 10.265625 9.453125 11.105469 8.625 12.136719 8.625 C 12.460938 8.625 12.78125 8.707031 13.0625 8.867188 L 21.789062 13.800781 C 22.371094 14.128906 22.730469 14.746094 22.730469 15.40625 C 22.730469 16.066406 22.371094 16.683594 21.789062 17.011719 L 13.0625 21.945312 C 12.78125 22.101562 12.460938 22.1875 12.136719 22.1875 Z M 12.136719 9.859375 C 11.792969 9.859375 11.511719 10.136719 11.511719 10.476562 L 11.511719 20.339844 C 11.511719 20.679688 11.792969 20.957031 12.136719 20.957031 C 12.246094 20.957031 12.351562 20.929688 12.445312 20.875 L 21.171875 15.945312 C 21.363281 15.835938 21.484375 15.628906 21.484375 15.40625 C 21.484375 15.1875 21.363281 14.980469 21.171875 14.871094 L 12.445312 9.941406 C 12.351562 9.886719 12.246094 9.859375 12.136719 9.859375 Z M 12.136719 9.859375 " fill-opacity="1" fill-rule="nonzero"/><path fill="#000000" d="M 14.328125 31.757812 L 15.296875 29.359375 L 16.453125 29.816406 L 15.484375 32.214844 Z M 14.328125 31.757812 " fill-opacity="1" fill-rule="nonzero"/><path fill="#000000" d="M 11.785156 30.648438 L 12.757812 28.238281 L 13.914062 28.695312 L 12.941406 31.105469 Z M 11.785156 30.648438 " fill-opacity="1" fill-rule="nonzero"/><path fill="#000000" d="M 9.242188 29.542969 L 10.230469 27.089844 L 11.386719 27.550781 L 10.398438 30 Z M 9.242188 29.542969 " fill-opacity="1" fill-rule="nonzero"/><path fill="#000000" d="M 16.871094 32.863281 L 17.847656 30.449219 L 19.003906 30.90625 L 18.027344 33.320312 Z M 16.871094 32.863281 " fill-opacity="1" fill-rule="nonzero"/><path fill="#000000" d="M 6.695312 28.433594 L 7.691406 25.972656 L 8.847656 26.433594 L 7.855469 28.890625 Z M 6.695312 28.433594 " fill-opacity="1" fill-rule="nonzero"/><g clip-path="url(#40aa4e87fc)"><path fill="#000000" d="M 4.65625 27.738281 L 4.035156 27.738281 C 2.316406 27.738281 0.917969 26.355469 0.917969 24.65625 L 0.917969 7.390625 C 0.917969 5.691406 2.316406 4.308594 4.035156 4.308594 L 27.71875 4.308594 C 29.433594 4.308594 30.832031 5.691406 30.832031 7.390625 L 30.832031 12.503906 L 29.585938 12.503906 L 29.585938 7.390625 C 29.585938 6.371094 28.75 5.542969 27.71875 5.542969 L 4.035156 5.542969 C 3.003906 5.542969 2.164062 6.371094 2.164062 7.390625 L 2.164062 24.65625 C 2.164062 25.675781 3.003906 26.503906 4.035156 26.503906 L 4.65625 26.503906 Z M 4.65625 27.738281 " fill-opacity="1" fill-rule="nonzero"/></g><g clip-path="url(#4732660299)"><path fill="#000000" d="M 20.726562 24.640625 L 22.785156 19.113281 C 22.816406 18.996094 22.898438 18.863281 23.007812 18.757812 L 32.355469 9.511719 C 32.707031 9.164062 33.328125 9.164062 33.679688 9.515625 L 36.167969 11.980469 C 36.347656 12.15625 36.441406 12.386719 36.441406 12.632812 C 36.441406 12.878906 36.34375 13.113281 36.167969 13.289062 L 26.820312 22.535156 C 26.71875 22.636719 26.589844 22.714844 26.453125 22.757812 Z M 23.933594 19.585938 L 22.789062 22.664062 L 25.992188 21.609375 L 35.066406 12.632812 L 33.015625 10.601562 Z M 23.890625 19.628906 L 23.886719 19.632812 C 23.886719 19.632812 23.890625 19.628906 23.890625 19.628906 Z M 23.964844 19.503906 L 23.953125 19.539062 C 23.957031 19.527344 23.960938 19.515625 23.964844 19.503906 Z M 35.289062 12.414062 C 35.289062 12.414062 35.285156 12.417969 35.285156 12.417969 Z M 32.796875 10.386719 C 32.796875 10.386719 32.796875 10.386719 32.796875 10.390625 Z M 32.796875 10.386719 " fill-opacity="1" fill-rule="nonzero"/></g><path fill="#000000" d="M 22.988281 19.640625 L 23.875 18.773438 L 26.792969 21.6875 L 25.90625 22.554688 Z M 22.988281 19.640625 " fill-opacity="1" fill-rule="nonzero"/><path fill="#000000" d="M 30.175781 12.542969 L 31.0625 11.675781 L 33.976562 14.589844 L 33.089844 15.457031 Z M 30.175781 12.542969 " fill-opacity="1" fill-rule="nonzero"/></svg>