<svg xmlns="http://www.w3.org/2000/svg" xmlns:xlink="http://www.w3.org/1999/xlink" width="50" zoomAndPan="magnify" viewBox="0 0 37.5 37.499999" height="50" preserveAspectRatio="xMidYMid meet" version="1.0"><defs><clipPath id="70ffab6dd1"><path d="M 0.886719 0.886719 L 36.414062 0.886719 L 36.414062 36.414062 L 0.886719 36.414062 Z M 0.886719 0.886719 " clip-rule="nonzero"/></clipPath></defs><g clip-path="url(#70ffab6dd1)"><path fill="#000000" d="M 36.09375 12.796875 C 35.894531 12.695312 35.65625 12.710938 35.480469 12.84375 L 31.492188 15.691406 L 29.902344 15.691406 L 29.902344 14.507812 C 29.902344 13.53125 29.101562 12.730469 28.125 12.730469 L 27.128906 12.730469 C 28.804688 11.550781 29.902344 9.605469 29.902344 7.402344 C 29.902344 3.808594 26.980469 0.886719 23.386719 0.886719 C 20.425781 0.886719 17.921875 2.871094 17.128906 5.582031 C 16.171875 4.179688 14.554688 3.257812 12.730469 3.257812 C 9.792969 3.257812 7.402344 5.648438 7.402344 8.585938 C 7.402344 10.261719 8.175781 11.753906 9.390625 12.730469 L 7.992188 12.730469 C 7.015625 12.730469 6.21875 13.53125 6.21875 14.507812 L 6.21875 17.46875 L 5.03125 17.46875 C 5.03125 17.222656 4.886719 17.003906 4.660156 16.917969 L 1.699219 15.730469 C 1.515625 15.660156 1.308594 15.683594 1.148438 15.792969 C 0.984375 15.902344 0.886719 16.085938 0.886719 16.28125 L 0.886719 23.386719 C 0.886719 23.582031 0.984375 23.765625 1.148438 23.878906 C 1.25 23.945312 1.363281 23.980469 1.480469 23.980469 C 1.558594 23.980469 1.628906 23.96875 1.699219 23.9375 L 4.660156 22.753906 C 4.886719 22.664062 5.03125 22.445312 5.03125 22.203125 L 6.21875 22.203125 L 6.21875 25.164062 C 6.21875 26.140625 7.015625 26.941406 7.992188 26.941406 L 11.546875 26.941406 L 11.546875 27.53125 C 11.546875 28.511719 12.34375 29.308594 13.324219 29.308594 L 14.277344 29.308594 L 12.167969 35.632812 C 12.109375 35.816406 12.136719 36.011719 12.25 36.164062 C 12.363281 36.324219 12.539062 36.414062 12.730469 36.414062 L 16.28125 36.414062 C 16.539062 36.414062 16.761719 36.25 16.84375 36.011719 L 18.652344 30.59375 L 20.457031 36.011719 C 20.539062 36.25 20.765625 36.414062 21.019531 36.414062 L 24.574219 36.414062 C 24.761719 36.414062 24.941406 36.324219 25.050781 36.164062 C 25.164062 36.011719 25.195312 35.816406 25.136719 35.632812 L 23.027344 29.308594 L 23.980469 29.308594 C 24.957031 29.308594 25.757812 28.511719 25.757812 27.53125 L 25.757812 26.941406 L 28.125 26.941406 C 29.101562 26.941406 29.902344 26.140625 29.902344 25.164062 L 29.902344 23.980469 L 31.492188 23.980469 L 35.480469 26.828125 C 35.578125 26.90625 35.703125 26.941406 35.824219 26.941406 C 35.917969 26.941406 36.007812 26.917969 36.09375 26.875 C 36.289062 26.773438 36.414062 26.574219 36.414062 26.347656 L 36.414062 13.324219 C 36.414062 13.097656 36.289062 12.894531 36.09375 12.796875 Z M 6.21875 21.019531 L 5.03125 21.019531 L 5.03125 18.652344 L 6.21875 18.652344 Z M 23.386719 5.03125 C 24.695312 5.03125 25.757812 6.09375 25.757812 7.402344 C 25.757812 8.710938 24.695312 9.769531 23.386719 9.769531 C 22.078125 9.769531 21.019531 8.710938 21.019531 7.402344 C 21.019531 6.09375 22.078125 5.03125 23.386719 5.03125 Z M 17.6875 10.546875 C 18.164062 11.414062 18.839844 12.160156 19.644531 12.730469 L 16.070312 12.730469 C 16.785156 12.15625 17.34375 11.410156 17.6875 10.546875 Z M 12.730469 6.808594 C 13.707031 6.808594 14.507812 7.609375 14.507812 8.585938 C 14.507812 9.5625 13.707031 10.363281 12.730469 10.363281 C 11.753906 10.363281 10.953125 9.5625 10.953125 8.585938 C 10.953125 7.609375 11.753906 6.808594 12.730469 6.808594 Z M 24.574219 27.53125 C 24.574219 27.859375 24.304688 28.125 23.980469 28.125 L 13.324219 28.125 C 12.996094 28.125 12.730469 27.859375 12.730469 27.53125 L 12.730469 26.941406 L 24.574219 26.941406 Z M 28.71875 16.28125 L 28.71875 25.164062 C 28.71875 25.488281 28.449219 25.757812 28.125 25.757812 L 7.992188 25.757812 C 7.667969 25.757812 7.402344 25.488281 7.402344 25.164062 L 7.402344 14.507812 C 7.402344 14.179688 7.667969 13.914062 7.992188 13.914062 L 28.125 13.914062 C 28.449219 13.914062 28.71875 14.179688 28.71875 14.507812 Z M 31.085938 22.796875 L 29.902344 22.796875 L 29.902344 16.875 L 31.085938 16.875 Z M 31.085938 22.796875 " fill-opacity="1" fill-rule="nonzero"/></g><path fill="#000000" d="M 9.175781 21.019531 L 15.097656 21.019531 C 15.261719 21.019531 15.402344 21.078125 15.515625 21.191406 C 15.632812 21.308594 15.691406 21.449219 15.691406 21.613281 L 15.691406 23.980469 C 15.691406 24.144531 15.632812 24.285156 15.515625 24.398438 C 15.402344 24.515625 15.261719 24.574219 15.097656 24.574219 L 9.175781 24.574219 C 9.015625 24.574219 8.875 24.515625 8.757812 24.398438 C 8.644531 24.285156 8.585938 24.144531 8.585938 23.980469 L 8.585938 21.613281 C 8.585938 21.449219 8.644531 21.308594 8.757812 21.191406 C 8.875 21.078125 9.015625 21.019531 9.175781 21.019531 Z M 9.175781 21.019531 " fill-opacity="1" fill-rule="nonzero"/></svg>